<svg width="12" height="3" viewBox="0 0 12 3" fill="none" xmlns="http://www.w3.org/2000/svg">
<path d="M1.59517 2.93182C1.31487 2.93182 1.07434 2.83144 0.87358 2.63068C0.672822 2.42992 0.572443 2.18939 0.572443 1.90909C0.572443 1.62879 0.672822 1.38826 0.87358 1.1875C1.07434 0.986742 1.31487 0.886364 1.59517 0.886364C1.87547 0.886364 2.116 0.986742 2.31676 1.1875C2.51752 1.38826 2.6179 1.62879 2.6179 1.90909C2.6179 2.0947 2.57055 2.26515 2.47585 2.42045C2.38494 2.57576 2.26184 2.70076 2.10653 2.79545C1.95502 2.88636 1.78456 2.93182 1.59517 2.93182ZM6.00142 2.93182C5.72112 2.93182 5.48059 2.83144 5.27983 2.63068C5.07907 2.42992 4.97869 2.18939 4.97869 1.90909C4.97869 1.62879 5.07907 1.38826 5.27983 1.1875C5.48059 0.986742 5.72112 0.886364 6.00142 0.886364C6.28172 0.886364 6.52225 0.986742 6.72301 1.1875C6.92377 1.38826 7.02415 1.62879 7.02415 1.90909C7.02415 2.0947 6.9768 2.26515 6.8821 2.42045C6.79119 2.57576 6.66809 2.70076 6.51278 2.79545C6.36127 2.88636 6.19081 2.93182 6.00142 2.93182ZM10.4077 2.93182C10.1274 2.93182 9.88684 2.83144 9.68608 2.63068C9.48532 2.42992 9.38494 2.18939 9.38494 1.90909C9.38494 1.62879 9.48532 1.38826 9.68608 1.1875C9.88684 0.986742 10.1274 0.886364 10.4077 0.886364C10.688 0.886364 10.9285 0.986742 11.1293 1.1875C11.33 1.38826 11.4304 1.62879 11.4304 1.90909C11.4304 2.0947 11.383 2.26515 11.2884 2.42045C11.1974 2.57576 11.0743 2.70076 10.919 2.79545C10.7675 2.88636 10.5971 2.93182 10.4077 2.93182Z" fill="#298267"/>
</svg>
