<svg width="116" height="32" viewBox="0 0 116 32" fill="none" xmlns="http://www.w3.org/2000/svg">
<path d="M51.8244 21.7581C51.0133 21.7668 50.2109 21.6185 49.4608 21.3307C48.0479 20.7899 46.9228 19.691 46.3472 18.2955C45.7541 16.8216 45.7541 15.1732 46.3472 13.6992C46.635 13.0102 47.0623 12.3909 47.5944 11.8676C48.1351 11.3443 48.7805 10.9344 49.4782 10.664C50.2283 10.3762 51.0307 10.2279 51.8418 10.2367C52.6355 10.2279 53.4205 10.3675 54.1531 10.6466C54.8508 10.9082 55.4788 11.3269 55.9847 11.8851L55.2171 12.6439C54.7898 12.1903 54.2578 11.8415 53.6821 11.6147C53.0978 11.4054 52.4872 11.292 51.868 11.3007C51.2226 11.292 50.5772 11.4141 49.9754 11.6496C49.4085 11.8763 48.8852 12.2078 48.4578 12.6351C48.0217 13.0625 47.6816 13.5684 47.4461 14.1266C46.9577 15.3214 46.9577 16.6646 47.4461 17.8682C47.6816 18.4264 48.0304 18.9322 48.4578 19.3596C48.8939 19.787 49.4085 20.1271 49.9754 20.3451C50.5772 20.5806 51.2226 20.7027 51.868 20.694C52.4872 20.7027 53.0978 20.5893 53.6821 20.3713C54.2665 20.1445 54.7898 19.787 55.2171 19.3334L55.9759 20.0922C55.4701 20.6504 54.8421 21.0778 54.1444 21.3394C53.4117 21.6272 52.6181 21.7668 51.8244 21.7581ZM59.7437 21.6621H58.5401V10.3326H59.7437V21.6621ZM66.9479 16.4291H59.6129V15.3738H66.9479V16.4291ZM66.8345 10.3239H68.0119V21.6534H66.8258L66.8345 10.3239ZM69.8958 21.6534L75.0765 10.3239H76.2539L81.4346 21.6534H80.17L75.4167 11.0216H75.9051L71.143 21.6534H69.8958ZM71.928 18.627L72.2856 17.6589H78.8705L79.2281 18.627H71.928ZM86.4235 21.7581C85.5949 21.7581 84.7838 21.6185 84.0076 21.3481C83.2313 21.0778 82.6382 20.7202 82.2196 20.2841L82.6906 19.3596C83.0918 19.7521 83.6238 20.0748 84.3041 20.3364C84.9844 20.5981 85.7083 20.7376 86.4322 20.7289C87.1474 20.7289 87.723 20.6417 88.1678 20.4585C88.6126 20.2754 88.944 20.0399 89.1534 19.7346C89.3627 19.4381 89.4761 19.0892 89.4674 18.7316C89.4674 18.2868 89.3365 17.9379 89.0836 17.6676C88.8045 17.3798 88.4644 17.1617 88.0893 17.0309C87.6445 16.8652 87.191 16.7256 86.7287 16.621C86.2316 16.5076 85.7345 16.3768 85.2373 16.2372C84.7576 16.1064 84.3041 15.932 83.868 15.6965C83.4668 15.4784 83.1179 15.1732 82.865 14.7981C82.6121 14.4231 82.4813 13.9347 82.4813 13.3329C82.4813 12.7834 82.6382 12.2514 82.9348 11.7891C83.2313 11.3182 83.6848 10.9431 84.3041 10.6553C84.9233 10.3675 85.7083 10.2279 86.6677 10.2279C87.3044 10.2279 87.9498 10.3152 88.5603 10.4983C89.1359 10.6553 89.6854 10.8995 90.1825 11.2309L89.7813 12.1816C89.3104 11.8676 88.7871 11.6234 88.2376 11.4664C87.723 11.3182 87.191 11.2397 86.659 11.2397C85.9787 11.2397 85.4205 11.3356 84.9757 11.5188C84.5309 11.7019 84.2082 11.9461 83.9901 12.2601C83.7808 12.5654 83.6674 12.9317 83.6761 13.3067C83.6761 13.7515 83.8069 14.1091 84.0599 14.3708C84.339 14.6586 84.6878 14.8766 85.0629 14.9987C85.5077 15.1557 85.9699 15.2953 86.4322 15.3999C86.9293 15.5133 87.4265 15.6441 87.9149 15.7837C88.3859 15.9145 88.8394 16.0977 89.2755 16.3244C89.6767 16.5337 90.0168 16.8303 90.2785 17.2053C90.5314 17.5716 90.6622 18.0513 90.6622 18.6444C90.6622 19.1852 90.5052 19.7172 90.2087 20.1707C89.9034 20.6417 89.4499 21.0167 88.8219 21.3045C88.194 21.6185 87.4003 21.7581 86.4235 21.7581ZM93.2526 21.6621V10.3326H94.4562V21.6621H93.2526ZM96.9331 21.6621V20.8336L101.643 16.2198C102 15.8796 102.323 15.5133 102.611 15.1121C102.969 14.6237 103.16 14.0306 103.16 13.4201C103.16 12.7572 102.934 12.2427 102.489 11.8676C102.044 11.4926 101.381 11.3007 100.509 11.3007C99.9073 11.292 99.3055 11.3967 98.7385 11.606C98.224 11.8066 97.7704 12.138 97.4216 12.5566L96.593 11.8415C97.0552 11.3094 97.6396 10.8995 98.2937 10.6466C99.0264 10.3588 99.82 10.2105 100.605 10.2279C101.373 10.2279 102.035 10.35 102.594 10.5943C103.692 11.0303 104.399 12.1118 104.355 13.2893C104.355 13.6556 104.303 14.0219 104.198 14.3708C104.076 14.772 103.884 15.147 103.649 15.4959C103.309 15.9756 102.925 16.4291 102.489 16.8303L98.1716 21.069L97.8489 20.6155H104.87V21.6534H96.9331V21.6621ZM105.768 18.6793V17.842L111.769 10.3326H113.06L107.103 17.842L106.475 17.6501H115.589V18.688L105.768 18.6793ZM112.161 21.6621V18.688L112.196 17.6501V15.0249H113.33V21.6621H112.161Z" fill="url(#paint0_linear_7001_11902)"/>
<path d="M33.2119 13.299L16.9023 14.3718C16.6581 12.1041 16.0825 6.70539 16.0825 6.70539C16.0737 6.80133 15.0271 16.4999 15.062 16.1772L16.0825 16.2906L29.3657 17.1627C28.5894 24.8466 21.0975 30.6116 13.2566 29.1987C4.35175 27.7596 -0.994667 18.0611 2.31087 9.67078C4.52618 3.92316 9.88132 0.277481 16.0127 0.0158296C9.83771 -0.280709 3.84589 3.6179 1.37764 9.28702C-2.79134 18.4797 2.91267 29.4778 12.7857 31.5885C23.9931 34.1003 34.3283 24.707 33.2119 13.299Z" fill="#1D7D4D"/>
<defs>
<linearGradient id="paint0_linear_7001_11902" x1="45.9023" y1="15.9952" x2="115.59" y2="15.9952" gradientUnits="userSpaceOnUse">
<stop stop-color="#0B3F29"/>
<stop offset="0.8045" stop-color="#1D7D4D"/>
</linearGradient>
</defs>
</svg>
