<svg width="32" height="32" viewBox="0 0 32 32" fill="none" xmlns="http://www.w3.org/2000/svg">
<path d="M24.642 23.1168L23.4317 21.3756C23.2664 21.1389 23.1775 20.8574 23.1768 20.5687V15.5718C23.1768 13.6946 22.4312 11.8944 21.1038 10.567C19.7765 9.23968 17.9762 8.49399 16.099 8.49399C14.2219 8.49399 12.4216 9.23968 11.0943 10.567C9.76692 11.8944 9.02122 13.6946 9.02122 15.5718V20.5687C9.02054 20.8574 8.93163 21.1389 8.76642 21.3756L7.55611 23.1168C7.37286 23.3198 7.25235 23.5716 7.20916 23.8417C7.16598 24.1118 7.20196 24.3886 7.31277 24.6387C7.42358 24.8887 7.60447 25.1013 7.83355 25.2508C8.06264 25.4002 8.33011 25.4801 8.60363 25.4807H12.6309C12.7934 26.2807 13.2274 27 13.8594 27.5166C14.4915 28.0332 15.2827 28.3154 16.099 28.3154C16.9154 28.3154 17.7066 28.0332 18.3386 27.5166C18.9707 27 19.4047 26.2807 19.5672 25.4807H23.5944C23.868 25.4801 24.1354 25.4002 24.3645 25.2508C24.5936 25.1013 24.7745 24.8887 24.8853 24.6387C24.9961 24.3886 25.0321 24.1118 24.9889 23.8417C24.9457 23.5716 24.8252 23.3198 24.642 23.1168ZM16.099 26.8963C15.661 26.8951 15.234 26.7584 14.8767 26.5049C14.5193 26.2515 14.2491 25.8938 14.1031 25.4807H18.095C17.949 25.8938 17.6788 26.2515 17.3214 26.5049C16.9641 26.7584 16.5371 26.8951 16.099 26.8963ZM8.60363 24.0652C8.63562 24.0355 8.66412 24.0022 8.68857 23.9661L9.92718 22.1825C10.2576 21.7091 10.4354 21.146 10.4368 20.5687V15.5718C10.4368 14.0701 11.0333 12.6299 12.0952 11.568C13.1571 10.5061 14.5973 9.90955 16.099 9.90955C17.6008 9.90955 19.041 10.5061 20.1029 11.568C21.1647 12.6299 21.7613 14.0701 21.7613 15.5718V20.5687C21.7627 21.146 21.9405 21.7091 22.2709 22.1825L23.5095 23.9661C23.534 24.0022 23.5625 24.0355 23.5944 24.0652H8.60363Z" fill="#031E16"/>
<circle cx="16.2141" cy="3.20238" r="2.20238" fill="#031E16"/>
</svg>
