<svg width="61" height="60" viewBox="0 0 61 60" fill="none" xmlns="http://www.w3.org/2000/svg">
<path d="M37.6953 25.4204C41.5878 29.3129 41.5878 35.624 37.6953 39.5166C33.8027 43.4091 27.4916 43.4091 23.5991 39.5166C19.7066 35.624 19.7066 29.3129 23.5991 25.4204C27.4916 21.5278 33.8027 21.5278 37.6953 25.4204" stroke="#288267" stroke-opacity="0.2" stroke-width="2" stroke-linecap="round" stroke-linejoin="round"/>
<path fill-rule="evenodd" clip-rule="evenodd" d="M53 22.501V45.001C53 47.7635 50.7625 50.001 48 50.001H13C10.2375 50.001 8 47.7635 8 45.001V22.501C8 19.7385 10.2375 17.501 13 17.501H18L21.655 11.241C22.1025 10.4735 22.925 10.001 23.815 10.001H37.075C37.9525 10.001 38.765 10.461 39.2175 11.211L43 17.501H48C50.7625 17.501 53 19.7385 53 22.501Z" stroke="#288267" stroke-opacity="0.2" stroke-width="2" stroke-linecap="round" stroke-linejoin="round"/>
</svg>
