<svg width="32" height="32" viewBox="0 0 32 32" fill="none" xmlns="http://www.w3.org/2000/svg">
<g id="Support, Help, Question/User, Chat, Messages, Bubble">
<g id="Group">
<g id="Group_2">
<path id="Path" d="M5.16797 26.5003V26.5003C5.16797 24.1681 7.05797 22.2781 9.39014 22.2781H13.6123C15.9445 22.2781 17.8345 24.1681 17.8345 26.5003V26.5003" stroke="#031E16" stroke-width="1.5" stroke-linecap="round" stroke-linejoin="round"/>
<path id="Path_2" d="M14.1141 12.8002C15.557 14.2431 15.557 16.5825 14.1141 18.0255C12.6712 19.4684 10.3318 19.4684 8.88883 18.0255C7.44591 16.5825 7.44591 14.2431 8.88883 12.8002C10.3318 11.3573 12.6712 11.3573 14.1141 12.8002" stroke="#031E16" stroke-width="1.5" stroke-linecap="round" stroke-linejoin="round"/>
<path id="Path_3" d="M25.1139 18.1075C28.2732 18.1075 30.8352 15.5455 30.8352 12.3862C30.8352 9.22686 28.2744 6.66486 25.1139 6.66486C21.9534 6.66486 19.3926 9.22686 19.3926 12.3862" stroke="#031E16" stroke-width="1.5" stroke-linecap="round" stroke-linejoin="round"/>
<path id="Path_4" d="M25.1196 18.1123C24.2586 18.1123 23.4431 17.9222 22.7105 17.5827L19.1895 18.3305L19.9256 14.8025C19.5838 14.0675 19.3925 13.2485 19.3925 12.3852" stroke="#031E16" stroke-width="1.5" stroke-linecap="round" stroke-linejoin="round"/>
<path id="Path_5" d="M22.4508 12.4569C22.4735 12.4797 22.4735 12.5167 22.4508 12.5394C22.428 12.5622 22.391 12.5622 22.3683 12.5394C22.3455 12.5167 22.3455 12.4797 22.3683 12.4569C22.391 12.4342 22.428 12.4342 22.4508 12.4569" stroke="#031E16" stroke-width="1.5" stroke-linecap="round" stroke-linejoin="round"/>
<path id="Path_6" d="M25.0758 12.4569C25.0985 12.4797 25.0985 12.5167 25.0758 12.5394C25.053 12.5622 25.016 12.5622 24.9933 12.5394C24.9705 12.5167 24.9705 12.4797 24.9933 12.4569C25.016 12.4342 25.053 12.4342 25.0758 12.4569" stroke="#031E16" stroke-width="1.5" stroke-linecap="round" stroke-linejoin="round"/>
<path id="Path_7" d="M27.7008 12.4569C27.7235 12.4797 27.7235 12.5167 27.7008 12.5394C27.678 12.5622 27.641 12.5622 27.6183 12.5394C27.5955 12.5167 27.5955 12.4797 27.6183 12.4569C27.641 12.4342 27.678 12.4342 27.7008 12.4569" stroke="#031E16" stroke-width="1.5" stroke-linecap="round" stroke-linejoin="round"/>
</g>
</g>
</g>
</svg>
