<svg width="40" height="31" viewBox="0 0 40 31" fill="none" xmlns="http://www.w3.org/2000/svg">
<path d="M1.66797 29.9985V29.9985C1.66797 26.6668 4.36797 23.9668 7.69964 23.9668H13.7313C17.063 23.9668 19.763 26.6668 19.763 29.9985V29.9985" stroke="#031E16" stroke-width="1.5" stroke-linecap="round" stroke-linejoin="round"/>
<path d="M14.4482 10.4327C16.5095 12.494 16.5095 15.8361 14.4482 17.8974C12.3869 19.9587 9.0448 19.9587 6.98349 17.8974C4.92217 15.8361 4.92217 12.494 6.98349 10.4327C9.0448 8.37139 12.3869 8.37139 14.4482 10.4327" stroke="#031E16" stroke-width="1.5" stroke-linecap="round" stroke-linejoin="round"/>
<path d="M30.1616 18.0127C34.6749 18.0127 38.3349 14.3527 38.3349 9.83935C38.3349 5.32602 34.6766 1.66602 30.1616 1.66602C25.6466 1.66602 21.9883 5.32602 21.9883 9.83935" stroke="#031E16" stroke-width="1.5" stroke-linecap="round" stroke-linejoin="round"/>
<path d="M30.1709 18.0215C28.9409 18.0215 27.7759 17.7498 26.7292 17.2648L21.6992 18.3332L22.7509 13.2932C22.2626 12.2432 21.9892 11.0732 21.9892 9.83984" stroke="#031E16" stroke-width="1.5" stroke-linecap="round" stroke-linejoin="round"/>
<path d="M26.3571 9.94042C26.3896 9.97297 26.3896 10.0257 26.3571 10.0583C26.3246 10.0908 26.2718 10.0908 26.2393 10.0583C26.2067 10.0257 26.2067 9.97297 26.2393 9.94042C26.2718 9.90788 26.3246 9.90788 26.3571 9.94042" stroke="#031E16" stroke-width="1.5" stroke-linecap="round" stroke-linejoin="round"/>
<path d="M30.1071 9.94042C30.1396 9.97297 30.1396 10.0257 30.1071 10.0583C30.0746 10.0908 30.0218 10.0908 29.9893 10.0583C29.9567 10.0257 29.9567 9.97297 29.9893 9.94042C30.0218 9.90788 30.0746 9.90788 30.1071 9.94042" stroke="#031E16" stroke-width="1.5" stroke-linecap="round" stroke-linejoin="round"/>
<path d="M33.8571 9.94042C33.8896 9.97297 33.8896 10.0257 33.8571 10.0583C33.8246 10.0908 33.7718 10.0908 33.7393 10.0583C33.7067 10.0257 33.7067 9.97297 33.7393 9.94042C33.7718 9.90788 33.8246 9.90788 33.8571 9.94042" stroke="#031E16" stroke-width="1.5" stroke-linecap="round" stroke-linejoin="round"/>
</svg>
