<svg width="24" height="24" fill="none" xmlns="http://www.w3.org/2000/svg"><path clip-rule="evenodd" d="M10.856 13.144a12.635 12.635 0 0 1-2.638-3.81.749.749 0 0 1 .166-.826l.82-.818c.67-.671.67-1.62.084-2.206L8.114 4.31a2 2 0 0 0-2.828 0l-.652.652c-.74.74-1.05 1.81-.85 2.87.494 2.613 2.012 5.474 4.461 7.923 2.45 2.449 5.31 3.967 7.923 4.46 1.06.2 2.13-.108 2.87-.85l.651-.65a2 2 0 0 0 0-2.828l-1.173-1.173a1.5 1.5 0 0 0-2.12 0l-.904.904a.749.749 0 0 1-.827.166 12.66 12.66 0 0 1-3.809-2.64Z" stroke="#031E16" stroke-width="1.5" stroke-linecap="round" stroke-linejoin="round"/></svg>