<svg width="61" height="60" fill="none" xmlns="http://www.w3.org/2000/svg"><path d="M37.695 25.42c3.893 3.893 3.893 10.204 0 14.097-3.892 3.892-10.203 3.892-14.096 0-3.892-3.893-3.892-10.204 0-14.097 3.893-3.892 10.204-3.892 14.096 0" stroke="#288267" stroke-opacity=".2" stroke-width="2" stroke-linecap="round" stroke-linejoin="round"/><path clip-rule="evenodd" d="M53 22.501v22.5c0 2.763-2.237 5-5 5H13c-2.762 0-5-2.237-5-5v-22.5c0-2.763 2.238-5 5-5h5l3.655-6.26a2.5 2.5 0 0 1 2.16-1.24h13.26c.877 0 1.69.46 2.142 1.21L43 17.501h5c2.763 0 5 2.237 5 5Z" stroke="#288267" stroke-opacity=".2" stroke-width="2" stroke-linecap="round" stroke-linejoin="round"/></svg>