<svg width="24" height="24" fill="none" xmlns="http://www.w3.org/2000/svg"><path d="M14.122 9.88a3.004 3.004 0 0 1 0 4.245 3.004 3.004 0 0 1-4.245 0 3.004 3.004 0 0 1 0-4.245 3 3 0 0 1 4.245 0" stroke="#031E16" stroke-width="1.5" stroke-linecap="round" stroke-linejoin="round"/><path clip-rule="evenodd" d="M3 12c0-.659.152-1.311.446-1.912v0C4.961 6.991 8.309 5 12 5s7.039 1.991 8.554 5.088v0c.294.601.446 1.253.446 1.912s-.152 1.311-.446 1.912v0C19.039 17.009 15.691 19 12 19s-7.039-1.991-8.554-5.088v0A4.346 4.346 0 0 1 3 12Z" stroke="#031E16" stroke-width="1.5" stroke-linecap="round" stroke-linejoin="round"/></svg>